<svg width="11" height="11" viewBox="0 0 11 11" fill="none" xmlns="http://www.w3.org/2000/svg">
<path d="M10.7136 2.19285C10.6855 2.13814 10.6448 2.09085 10.595 2.05483C10.5451 2.01881 10.4874 1.99507 10.4266 1.98555C10.3659 1.97604 10.3037 1.98101 10.2452 2.00006C10.1867 2.01911 10.1336 2.05171 10.0901 2.09519L8.59006 3.59617C8.51643 3.66873 8.4172 3.70941 8.31382 3.70941C8.21044 3.70941 8.11121 3.66873 8.03757 3.59617L7.38914 2.94675C7.35285 2.91048 7.32407 2.86741 7.30444 2.82002C7.2848 2.77262 7.27469 2.72181 7.27469 2.67051C7.27469 2.6192 7.2848 2.5684 7.30444 2.521C7.32407 2.4736 7.35285 2.43054 7.38914 2.39426L8.88279 0.900368C8.92756 0.855598 8.96079 0.800614 8.97959 0.740152C8.9984 0.67969 9.00222 0.615563 8.99074 0.553294C8.97926 0.491025 8.95281 0.43248 8.91367 0.382704C8.87454 0.332927 8.82389 0.29341 8.76609 0.267556V0.267556C7.63792 -0.236838 6.22971 0.0263452 5.34177 0.907693C4.58738 1.65672 4.36253 2.82713 4.72532 4.11887C4.74488 4.18776 4.74499 4.26071 4.72564 4.32966C4.7063 4.3986 4.66824 4.46085 4.6157 4.5095L0.551249 8.22166C0.39291 8.36382 0.265192 8.53675 0.175888 8.7299C0.0865838 8.92306 0.0375646 9.13237 0.0318208 9.34509C0.026077 9.55781 0.063729 9.76947 0.14248 9.96716C0.221231 10.1648 0.33943 10.3444 0.489867 10.4949C0.640303 10.6454 0.819824 10.7637 1.01748 10.8425C1.21513 10.9214 1.42677 10.9591 1.6395 10.9535C1.85222 10.9478 2.06156 10.8989 2.25475 10.8097C2.44794 10.7205 2.62093 10.5928 2.76316 10.4345L6.51511 6.36106C6.56306 6.30919 6.62426 6.27139 6.6921 6.25173C6.75995 6.23207 6.83187 6.2313 6.90012 6.24949C7.26788 6.35025 7.64723 6.40254 8.02854 6.40501C8.84397 6.40501 9.55955 6.14109 10.0757 5.63254C11.0315 4.69089 11.1772 3.09373 10.7136 2.19285ZM1.67893 10.1672C1.51814 10.1848 1.35587 10.152 1.2145 10.0734C1.07314 9.99477 0.95966 9.87423 0.889722 9.72838C0.819783 9.58254 0.796836 9.41858 0.824047 9.25914C0.851258 9.0997 0.927286 8.95264 1.04164 8.83825C1.15599 8.72385 1.30303 8.64777 1.46246 8.62051C1.62189 8.59324 1.78585 8.61613 1.93172 8.68602C2.07759 8.7559 2.19817 8.86934 2.27682 9.01068C2.35548 9.15201 2.38832 9.31428 2.37083 9.47507C2.35158 9.65199 2.2725 9.81704 2.14669 9.9429C2.02087 10.0688 1.85585 10.1479 1.67893 10.1672V10.1672Z" fill="white"/>
</svg>
