<svg width="11" height="11" viewBox="0 0 11 11" fill="none" xmlns="http://www.w3.org/2000/svg">
<path d="M10.911 0.184623C10.9066 0.163031 10.8961 0.143157 10.8807 0.127331C10.8654 0.111505 10.8458 0.100382 10.8244 0.0952678C9.39444 -0.254341 6.09049 0.991508 4.30045 2.78081C3.98118 3.0975 3.69012 3.44141 3.43058 3.80864C2.87858 3.75982 2.32658 3.80059 1.85612 4.00567C0.528725 4.58989 0.14225 6.11431 0.0345845 6.77007C0.0284775 6.80596 0.0307811 6.84278 0.041314 6.87763C0.0518469 6.91248 0.0703219 6.94442 0.0952859 6.97092C0.12025 6.99742 0.151022 7.01777 0.185183 7.03037C0.219343 7.04296 0.25596 7.04746 0.292153 7.04351L2.42374 6.8084C2.42527 6.96911 2.43496 7.12963 2.4528 7.28936C2.46352 7.40027 2.51276 7.50393 2.59196 7.58232L3.4174 8.40581C3.49586 8.48491 3.59948 8.53412 3.71036 8.54497C3.86919 8.56274 4.02882 8.57243 4.18864 8.57402L3.95475 10.7029C3.95085 10.7391 3.95538 10.7757 3.96799 10.8098C3.98061 10.844 4.00096 10.8747 4.02745 10.8997C4.05394 10.9246 4.08585 10.9431 4.12067 10.9537C4.1555 10.9642 4.1923 10.9666 4.22819 10.9605C4.88273 10.8555 6.40983 10.469 6.99064 9.14165C7.19571 8.67119 7.23771 8.12188 7.19034 7.57256C7.55846 7.313 7.90327 7.02186 8.22086 6.70244C10.0165 4.91582 11.2553 1.6856 10.911 0.184623ZM6.42936 4.5711C6.26539 4.40724 6.1537 4.19843 6.10843 3.97109C6.06315 3.74375 6.08631 3.50808 6.17498 3.2939C6.26366 3.07973 6.41386 2.89666 6.60659 2.76786C6.79932 2.63906 7.02592 2.57031 7.25773 2.57031C7.48953 2.57031 7.71613 2.63906 7.90886 2.76786C8.10159 2.89666 8.2518 3.07973 8.34047 3.2939C8.42914 3.50808 8.45231 3.74375 8.40703 3.97109C8.36175 4.19843 8.25006 4.40724 8.08609 4.5711C7.97737 4.67998 7.84824 4.76636 7.7061 4.82529C7.56396 4.88423 7.4116 4.91456 7.25773 4.91456C7.10385 4.91456 6.95149 4.88423 6.80935 4.82529C6.66721 4.76636 6.53808 4.67998 6.42936 4.5711Z" fill="white"/>
</svg>
